Coordinates
version=1
nRows=27
nColumns=38
inDegrees=no

Units are S.I. units (second, meters, Newtons, ...)
If the header above contains a line with 'inDegrees', this indicates whether rotational values are in degrees (yes) or radians (no).

endheader
time	pelvis_tilt	pelvis_list	pelvis_rotation	pelvis_tx	pelvis_ty	pelvis_tz	hip_flexion_r	hip_adduction_r	hip_rotation_r	knee_angle_r	ankle_angle_r	subtalar_angle_r	mtp_angle_r	hip_flexion_l	hip_adduction_l	hip_rotation_l	knee_angle_l	ankle_angle_l	subtalar_angle_l	mtp_angle_l	lumbar_extension	lumbar_bending	lumbar_rotation	arm_flex_r	arm_add_r	arm_rot_r	elbow_flex_r	pro_sup_r	wrist_flex_r	wrist_dev_r	arm_flex_l	arm_add_l	arm_rot_l	elbow_flex_l	pro_sup_l	wrist_flex_l	wrist_dev_l
3.75	0.0716514	1.33681	1.51823	0.661126	0.174484	1.01113	0.484548	-0.037986	0.116816	0.555591	-0.134604	0	0	0.363779	-0.0521767	-0.0412217	0.441383	-0.182214	0	0	-0.304109	-0.0697023	0.169487	0.783605	-0.612663	0.582416	0.813099	0.646801	0	0	0.947135	-0.0458634	0.285657	0.491002	1.5708	0	0
3.76	0.0721175	1.33625	1.51929	0.660892	0.174679	1.01119	0.484617	-0.0385447	0.11598	0.555434	-0.134912	0	0	0.363604	-0.0516438	-0.0406264	0.439674	-0.183066	0	0	-0.306076	-0.0698952	0.166061	0.797347	-0.60925	0.595228	0.802348	0.642744	0	0	0.956433	-0.0439949	0.284358	0.481658	1.5708	0	0
3.77	0.0723484	1.3358	1.52043	0.66069	0.17493	1.01127	0.48458	-0.0391292	0.115235	0.555353	-0.134962	0	0	0.363151	-0.0511085	-0.0399953	0.437827	-0.183786	0	0	-0.308147	-0.0702408	0.16265	0.810226	-0.605474	0.607092	0.791882	0.638978	0	0	0.964971	-0.0427321	0.282886	0.473826	1.5708	0	0
3.78	0.0727639	1.33543	1.52126	0.660512	0.175231	1.01133	0.484437	-0.0396688	0.114643	0.555292	-0.134732	0	0	0.362625	-0.05073	-0.0394441	0.43609	-0.18442	0	0	-0.31029	-0.0705436	0.159209	0.822069	-0.601495	0.617791	0.782193	0.635594	0	0	0.972585	-0.042035	0.281057	0.467328	1.5708	0	0
3.79	0.0732144	1.335	1.52192	0.660339	0.175565	1.01138	0.484179	-0.0401324	0.11448	0.554827	-0.134348	0	0	0.362257	-0.050431	-0.03905	0.43458	-0.184973	0	0	-0.312313	-0.0708867	0.155827	0.833002	-0.597452	0.6276	0.773183	0.632647	0	0	0.979517	-0.0417748	0.279148	0.461708	1.5708	0	0
3.8	0.0736164	1.3345	1.5225	0.660177	0.175941	1.01143	0.483662	-0.0404011	0.11443	0.554004	-0.133901	0	0	0.362006	-0.0501319	-0.0387786	0.433447	-0.18534	0	0	-0.314215	-0.0713232	0.152634	0.842797	-0.593423	0.636022	0.765131	0.630312	0	0	0.985961	-0.0418681	0.277601	0.456641	1.5708	0	0
3.81	0.0736502	1.33409	1.52335	0.660026	0.176357	1.0115	0.483132	-0.0407681	0.113902	0.55336	-0.133509	0	0	0.361689	-0.0497243	-0.0385761	0.432592	-0.185547	0	0	-0.316101	-0.0719636	0.149664	0.851371	-0.589319	0.642624	0.757834	0.628522	0	0	0.99203	-0.042212	0.276731	0.452128	1.5708	0	0
3.82	0.073267	1.33369	1.52465	0.659878	0.176794	1.01156	0.482586	-0.0412195	0.113568	0.552711	-0.13319	0	0	0.361458	-0.0492443	-0.03855	0.431963	-0.185694	0	0	-0.317905	-0.0727256	0.146702	0.85888	-0.585086	0.647734	0.751232	0.627196	0	0	0.997751	-0.0427371	0.276151	0.447936	1.5708	0	0
3.83	0.0732962	1.33314	1.52547	0.659741	0.177261	1.01161	0.4822	-0.0415036	0.113393	0.552056	-0.132921	0	0	0.361456	-0.0489426	-0.0386054	0.431553	-0.185774	0	0	-0.319459	-0.073386	0.143954	0.865237	-0.58102	0.651528	0.745452	0.626977	0	0	1.00302	-0.0432523	0.275626	0.443911	1.5708	0	0
3.84	0.0737925	1.33247	1.52586	0.659589	0.177757	1.01162	0.481875	-0.0417242	0.113192	0.551342	-0.132593	0	0	0.361673	-0.048725	-0.0385329	0.431333	-0.185706	0	0	-0.320757	-0.0738422	0.141405	0.870569	-0.577175	0.6544	0.740318	0.627159	0	0	1.00793	-0.0435536	0.274833	0.43969	1.5708	0	0
3.85	0.0745451	1.33178	1.52599	0.659421	0.178283	1.01161	0.481529	-0.0418978	0.112881	0.550707	-0.132142	0	0	0.361896	-0.0485196	-0.0382609	0.431244	-0.185503	0	0	-0.321873	-0.0741982	0.139034	0.874808	-0.573488	0.656142	0.735857	0.627431	0	0	1.01265	-0.0436678	0.273922	0.435099	1.5708	0	0
3.86	0.0754796	1.33116	1.52594	0.659249	0.178848	1.01158	0.481092	-0.0420071	0.112478	0.550169	-0.131627	0	0	0.362066	-0.0483177	-0.0379336	0.431213	-0.185141	0	0	-0.322851	-0.0745391	0.136906	0.878162	-0.569985	0.657184	0.731836	0.627879	0	0	1.01718	-0.0434868	0.273178	0.430267	1.5708	0	0
3.87	0.0763577	1.33056	1.52589	0.659083	0.179466	1.01155	0.480616	-0.0421306	0.111936	0.549694	-0.131071	0	0	0.362184	-0.0481494	-0.0376668	0.431349	-0.184661	0	0	-0.323648	-0.0749494	0.13502	0.880639	-0.566663	0.657565	0.728228	0.628443	0	0	1.0213	-0.0431933	0.27303	0.425723	1.5708	0	0
3.88	0.077212	1.3298	1.52563	0.658911	0.18012	1.01149	0.480311	-0.0422856	0.11154	0.549103	-0.130529	0	0	0.362422	-0.0480341	-0.0373914	0.43155	-0.184131	0	0	-0.324062	-0.075327	0.133531	0.882074	-0.563523	0.656914	0.725193	0.629269	0	0	1.02498	-0.0427045	0.273226	0.421114	1.5708	0	0
3.89	0.0781149	1.32903	1.52509	0.658727	0.180817	1.01142	0.480012	-0.0424335	0.111187	0.548388	-0.129975	0	0	0.362605	-0.0480172	-0.0372097	0.431801	-0.183543	0	0	-0.324218	-0.075654	0.132302	0.882542	-0.560284	0.655251	0.722492	0.63035	0	0	1.0282	-0.042261	0.273433	0.416278	1.5708	0	0
3.9	0.0791087	1.32842	1.52425	0.65853	0.181556	1.01136	0.479366	-0.0424046	0.110872	0.547623	-0.129432	0	0	0.36253	-0.0480991	-0.0372734	0.431994	-0.183074	0	0	-0.324516	-0.0759266	0.131334	0.88269	-0.557319	0.653604	0.719991	0.631902	0	0	1.03081	-0.0420787	0.273319	0.411968	1.5708	0	0
3.91	0.0799306	1.328	1.52355	0.658313	0.182327	1.01133	0.478368	-0.042389	0.110639	0.54686	-0.12898	0	0	0.362167	-0.0481236	-0.0373249	0.432038	-0.182652	0	0	-0.325135	-0.0762317	0.130447	0.882467	-0.554679	0.65156	0.717925	0.634121	0	0	1.03283	-0.042181	0.272347	0.408734	1.5708	0	0
3.92	0.080497	1.32758	1.52321	0.658038	0.1831	1.01132	0.477355	-0.0426088	0.110451	0.545888	-0.129261	0	0	0.361912	-0.0479424	-0.0371642	0.432298	-0.182338	0	0	-0.325784	-0.0763801	0.129422	0.883697	-0.553872	0.656232	0.716561	0.622726	0	0	1.03398	-0.042636	0.271404	0.406671	1.5708	0	0
3.93	0.0808226	1.32723	1.52314	0.657748	0.183892	1.01134	0.476119	-0.0429276	0.110362	0.544532	-0.12888	0	0	0.361571	-0.0476615	-0.0369388	0.43257	-0.181935	0	0	-0.326596	-0.0765712	0.128656	0.882585	-0.552314	0.654102	0.715893	0.624301	0	0	1.03483	-0.0428792	0.271229	0.404677	1.5708	0	0
3.94	0.0815011	1.32696	1.52266	0.657458	0.184713	1.01136	0.474849	-0.0431884	0.10992	0.543381	-0.128481	0	0	0.361112	-0.0475251	-0.0368003	0.4329	-0.181383	0	0	-0.327381	-0.0767151	0.127982	0.880905	-0.550512	0.650886	0.715113	0.626801	0	0	1.03497	-0.0429889	0.270184	0.403232	1.5708	0	0
3.95	0.0823492	1.32657	1.52209	0.657124	0.18556	1.01136	0.473621	-0.0434789	0.109214	0.542208	-0.128041	0	0	0.360656	-0.0473494	-0.036614	0.433035	-0.180783	0	0	-0.327815	-0.0767938	0.127244	0.87825	-0.548339	0.645613	0.714455	0.629726	0	0	1.03448	-0.0430507	0.268511	0.402795	1.5708	0	0
3.96	0.0827892	1.32601	1.52184	0.656762	0.18643	1.01134	0.472582	-0.043862	0.108636	0.540993	-0.127674	0	0	0.360269	-0.046985	-0.0363397	0.432966	-0.180284	0	0	-0.327748	-0.0769541	0.126745	0.87514	-0.546564	0.639925	0.714302	0.631549	0	0	1.03354	-0.042998	0.267331	0.40344	1.5708	0	0
3.97	0.0810712	1.32543	1.52363	0.656448	0.187339	1.01132	0.471444	-0.044731	0.1082	0.53924	-0.125942	0	0	0.359626	-0.046052	-0.0360475	0.432279	-0.17962	0	0	-0.327345	-0.0780854	0.127774	0.866126	-0.543713	0.616339	0.716248	0.658418	0	0	1.03529	-0.0427599	0.279883	0.400533	1.5708	0	0
3.98	0.0812517	1.32397	1.52335	0.656018	0.188325	1.01122	0.470998	-0.0451506	0.107502	0.537384	-0.125757	0	0	0.359791	-0.0455787	-0.0359547	0.431727	-0.179019	0	0	-0.325794	-0.0778198	0.127633	0.863655	-0.543922	0.614326	0.717797	0.656779	0	0	1.03067	-0.0418658	0.270095	0.406189	1.5708	0	0
3.99	0.0810977	1.32259	1.52322	0.655593	0.189319	1.01112	0.470448	-0.0455513	0.106803	0.535676	-0.125306	0	0	0.359835	-0.045104	-0.0359368	0.431234	-0.178476	0	0	-0.324028	-0.0778453	0.128294	0.860658	-0.544712	0.610806	0.719294	0.657339	0	0	1.02769	-0.0406607	0.266405	0.408767	1.5708	0	0
4	0.0812089	1.32117	1.52268	0.65513	0.190345	1.01099	0.469803	-0.0458615	0.106048	0.533819	-0.124778	0	0	0.35969	-0.0446246	-0.0358036	0.430391	-0.177768	0	0	-0.322019	-0.0777507	0.129499	0.857235	-0.54606	0.60696	0.721346	0.658747	0	0	1.0247	-0.0392081	0.264403	0.410745	1.5708	0	0
4.01	0.0807792	1.31961	1.52245	0.654633	0.191393	1.01086	0.469302	-0.0463234	0.105503	0.531704	-0.124168	0	0	0.359449	-0.0439731	-0.0357994	0.429124	-0.176898	0	0	-0.319799	-0.0776823	0.131196	0.853322	-0.548057	0.60236	0.7239	0.660752	0	0	1.02127	-0.0374991	0.262548	0.412982	1.5708	0	0
